<?xml version="1.0" encoding="UTF-8" standalone="no"?>
<svg width="1019px" height="968px" viewBox="0 0 1019 968" version="1.1" xmlns="http://www.w3.org/2000/svg" xmlns:xlink="http://www.w3.org/1999/xlink" xmlns:sketch="http://www.bohemiancoding.com/sketch/ns">
    <!-- Generator: Sketch 3.3.2 (12043) - http://www.bohemiancoding.com/sketch -->
    <title>Group</title>
    <desc>Created with Sketch.</desc>
    <defs></defs>
    <g id="Page-1" stroke="none" stroke-width="1" fill="none" fill-rule="evenodd" sketch:type="MSPage">
        <g id="Group" sketch:type="MSLayerGroup">
            <path d="M509.403463,242.944552 L509.403463,238.619564 C509.403463,238.619564 542.962167,145.262072 692.920438,126.751889 C842.878709,108.241706 873.9033,132.846618 873.9033,132.846618 C917.333068,143.065186 952.830588,195.560017 952.830588,245.744451 L952.830588,255.788985 C990.552252,284.612761 1018.30861,334.472861 1018.30861,375.896094 L1018.30861,749.644242 C1018.30861,877.595095 904.002455,967.288049 828.932708,967.288049 C828.932708,967.288049 874.240187,837.786064 720.019206,824.341989 C565.798226,810.897915 509.403463,907.067677 509.403463,907.067677 L509.403463,572.843621 L509.403463,242.944552 L509.403463,572.843621 L509.403463,902.742689 C509.403463,902.742689 558.542223,792.629337 692.920438,767.942318 C827.298654,743.255298 875.373782,760.519052 875.373782,760.519052 C918.151995,766.452748 952.830588,730.581813 952.830588,680.396003 L952.830588,255.788985 C944.852285,249.692626 936.428193,244.537309 927.726641,240.601894 C927.726641,240.601894 892.120848,207.19346 720.019206,183.15156 C547.917727,159.109683 509.403536,242.944395 509.403463,242.944552 Z" id="page-1-left-copy-60" fill="#FFFFFF" sketch:type="MSShapeGroup"></path>
            <path d="M494.36209,248.396547 L494.36209,912.519672 C494.36209,912.519672 529.530746,785.557876 625.70536,714.795948 C721.879975,644.034019 756.287389,644.814022 756.287389,644.814022 C786.903796,636.080145 811.723297,588.318792 811.723297,538.132983 L811.723297,103.48143 C811.723297,53.2969967 786.317689,12.9733719 755.234964,17.6457787 C755.234964,17.6457787 733.030635,3.67841785 625.70536,73.6055186 C518.380086,143.532619 494.36209,248.396547 494.36209,248.396547 Z" id="page-1-left-copy-67" fill="#FF6767" sketch:type="MSShapeGroup"></path>
            <path d="M177.000883,232.867664 L177.000883,896.990789 C177.000883,896.990789 212.169538,770.028993 308.344153,699.267065 C404.518767,628.505137 438.926181,629.285139 438.926181,629.285139 C469.542588,620.551262 494.36209,572.789909 494.36209,522.6041 L494.36209,87.9525476 C494.36209,37.7681138 468.956482,-2.55551096 437.873756,2.11689579 C437.873756,2.11689579 415.669428,-11.850465 308.344153,58.0766358 C201.018878,128.003737 177.000883,232.867664 177.000883,232.867664 Z" id="page-1-left-copy-68" fill="#FFFFFF" sketch:type="MSShapeGroup" transform="translate(335.681486, 448.984798) scale(-1, 1) translate(-335.681486, -448.984798) "></path>
            <path d="M0.498314994,873.769533 C31.6277349,847.42767 88.8568362,816.306763 181.031311,824.341989 C335.252291,837.786064 289.944813,967.288049 289.944813,967.288049 C365.014559,967.288049 479.320716,877.595095 479.320716,749.644242 L479.320716,375.896094 C479.320716,344.570211 463.446906,308.419298 439.393773,280.190275 L439.393773,684.615507 C439.393773,737.693114 402.716936,775.630999 357.473764,769.355392 C357.473764,769.355392 306.62846,751.096869 164.507126,777.2064 C81.8424795,792.392966 29.6772932,838.145859 0.498321047,873.769528 Z" id="page-1-left-copy-69" fill="#FFFFFF" sketch:type="MSShapeGroup" transform="translate(239.909516, 623.739162) scale(-1, 1) translate(-239.909516, -623.739162) "></path>
        </g>
    </g>
</svg>