<?xml version="1.0" encoding="UTF-8" standalone="no"?>
<svg width="2048px" height="2048px" viewBox="0 0 2048 2048" version="1.1" xmlns="http://www.w3.org/2000/svg" xmlns:xlink="http://www.w3.org/1999/xlink" xmlns:sketch="http://www.bohemiancoding.com/sketch/ns">
    <!-- Generator: Sketch 3.3.2 (12043) - http://www.bohemiancoding.com/sketch -->
    <title>Desktop</title>
    <desc>Created with Sketch.</desc>
    <defs>
        <filter x="-50%" y="-50%" width="200%" height="200%" filterUnits="objectBoundingBox" id="filter-1">
            <feOffset dx="0" dy="24" in="SourceAlpha" result="shadowOffsetOuter1"></feOffset>
            <feGaussianBlur stdDeviation="20" in="shadowOffsetOuter1" result="shadowBlurOuter1"></feGaussianBlur>
            <feColorMatrix values="0 0 0 0 0   0 0 0 0 0   0 0 0 0 0  0 0 0 0.35 0" in="shadowBlurOuter1" type="matrix" result="shadowMatrixOuter1"></feColorMatrix>
            <feMerge>
                <feMergeNode in="shadowMatrixOuter1"></feMergeNode>
                <feMergeNode in="SourceGraphic"></feMergeNode>
            </feMerge>
        </filter>
        <filter x="-50%" y="-50%" width="200%" height="200%" filterUnits="objectBoundingBox" id="filter-2">
            <feOffset dx="0" dy="24" in="SourceAlpha" result="shadowOffsetOuter1"></feOffset>
            <feGaussianBlur stdDeviation="20" in="shadowOffsetOuter1" result="shadowBlurOuter1"></feGaussianBlur>
            <feColorMatrix values="0 0 0 0 0   0 0 0 0 0   0 0 0 0 0  0 0 0 0.35 0" in="shadowBlurOuter1" type="matrix" result="shadowMatrixOuter1"></feColorMatrix>
            <feMerge>
                <feMergeNode in="shadowMatrixOuter1"></feMergeNode>
                <feMergeNode in="SourceGraphic"></feMergeNode>
            </feMerge>
        </filter>
        <filter x="-50%" y="-50%" width="200%" height="200%" filterUnits="objectBoundingBox" id="filter-3">
            <feOffset dx="0" dy="24" in="SourceAlpha" result="shadowOffsetOuter1"></feOffset>
            <feGaussianBlur stdDeviation="20" in="shadowOffsetOuter1" result="shadowBlurOuter1"></feGaussianBlur>
            <feColorMatrix values="0 0 0 0 0   0 0 0 0 0   0 0 0 0 0  0 0 0 0.35 0" in="shadowBlurOuter1" type="matrix" result="shadowMatrixOuter1"></feColorMatrix>
            <feMerge>
                <feMergeNode in="shadowMatrixOuter1"></feMergeNode>
                <feMergeNode in="SourceGraphic"></feMergeNode>
            </feMerge>
        </filter>
        <filter x="-50%" y="-50%" width="200%" height="200%" filterUnits="objectBoundingBox" id="filter-4">
            <feOffset dx="0" dy="24" in="SourceAlpha" result="shadowOffsetOuter1"></feOffset>
            <feGaussianBlur stdDeviation="20" in="shadowOffsetOuter1" result="shadowBlurOuter1"></feGaussianBlur>
            <feColorMatrix values="0 0 0 0 0   0 0 0 0 0   0 0 0 0 0  0 0 0 0.35 0" in="shadowBlurOuter1" type="matrix" result="shadowMatrixOuter1"></feColorMatrix>
            <feMerge>
                <feMergeNode in="shadowMatrixOuter1"></feMergeNode>
                <feMergeNode in="SourceGraphic"></feMergeNode>
            </feMerge>
        </filter>
        <filter x="-50%" y="-50%" width="200%" height="200%" filterUnits="objectBoundingBox" id="filter-5">
            <feOffset dx="0" dy="24" in="SourceAlpha" result="shadowOffsetOuter1"></feOffset>
            <feGaussianBlur stdDeviation="20" in="shadowOffsetOuter1" result="shadowBlurOuter1"></feGaussianBlur>
            <feColorMatrix values="0 0 0 0 0   0 0 0 0 0   0 0 0 0 0  0 0 0 0.35 0" in="shadowBlurOuter1" type="matrix" result="shadowMatrixOuter1"></feColorMatrix>
            <feMerge>
                <feMergeNode in="shadowMatrixOuter1"></feMergeNode>
                <feMergeNode in="SourceGraphic"></feMergeNode>
            </feMerge>
        </filter>
        <linearGradient x1="0%" y1="100%" x2="100%" y2="100%" id="linearGradient-6">
            <stop stop-color="#EEDFC5" offset="0%"></stop>
            <stop stop-color="#CFBCA0" offset="100%"></stop>
        </linearGradient>
        <filter x="-50%" y="-50%" width="200%" height="200%" filterUnits="objectBoundingBox" id="filter-7">
            <feOffset dx="0" dy="24" in="SourceAlpha" result="shadowOffsetOuter1"></feOffset>
            <feGaussianBlur stdDeviation="20" in="shadowOffsetOuter1" result="shadowBlurOuter1"></feGaussianBlur>
            <feColorMatrix values="0 0 0 0 0   0 0 0 0 0   0 0 0 0 0  0 0 0 0.35 0" in="shadowBlurOuter1" type="matrix" result="shadowMatrixOuter1"></feColorMatrix>
            <feMerge>
                <feMergeNode in="shadowMatrixOuter1"></feMergeNode>
                <feMergeNode in="SourceGraphic"></feMergeNode>
            </feMerge>
        </filter>
        <filter x="-50%" y="-50%" width="200%" height="200%" filterUnits="objectBoundingBox" id="filter-8">
            <feOffset dx="0" dy="24" in="SourceAlpha" result="shadowOffsetOuter1"></feOffset>
            <feGaussianBlur stdDeviation="20" in="shadowOffsetOuter1" result="shadowBlurOuter1"></feGaussianBlur>
            <feColorMatrix values="0 0 0 0 0   0 0 0 0 0   0 0 0 0 0  0 0 0 0.35 0" in="shadowBlurOuter1" type="matrix" result="shadowMatrixOuter1"></feColorMatrix>
            <feMerge>
                <feMergeNode in="shadowMatrixOuter1"></feMergeNode>
                <feMergeNode in="SourceGraphic"></feMergeNode>
            </feMerge>
        </filter>
        <linearGradient x1="100%" y1="102.397406%" x2="0%" y2="102.397406%" id="linearGradient-9">
            <stop stop-color="#EEDFC5" offset="0%"></stop>
            <stop stop-color="#CFBCA0" offset="100%"></stop>
        </linearGradient>
        <filter x="-50%" y="-50%" width="200%" height="200%" filterUnits="objectBoundingBox" id="filter-10">
            <feMorphology radius="2" in="SourceAlpha" operator="dilate" result="shadowSpreadOuter1"></feMorphology>
            <feOffset dx="0" dy="10" in="shadowSpreadOuter1" result="shadowOffsetOuter1"></feOffset>
            <feGaussianBlur stdDeviation="10" in="shadowOffsetOuter1" result="shadowBlurOuter1"></feGaussianBlur>
            <feColorMatrix values="0 0 0 0 0.263605442   0 0 0 0 0.237651061   0 0 0 0 0.192820766  0 0 0 0.421866508 0" in="shadowBlurOuter1" type="matrix" result="shadowMatrixOuter1"></feColorMatrix>
            <feMerge>
                <feMergeNode in="shadowMatrixOuter1"></feMergeNode>
                <feMergeNode in="SourceGraphic"></feMergeNode>
            </feMerge>
        </filter>
    </defs>
    <g id="Page-1" stroke="none" stroke-width="1" fill="none" fill-rule="evenodd" sketch:type="MSPage">
        <g id="Desktop" sketch:type="MSArtboardGroup">
            <rect id="cover" fill="#62A39D" filter="url(#filter-1)" sketch:type="MSShapeGroup" x="409" y="504" width="1230" height="1024" rx="110"></rect>
            <rect id="cover-copy" fill="#5EC8BE" sketch:type="MSShapeGroup" x="409" y="433" width="1230" height="1024" rx="110"></rect>
            <path d="M1383.88965,509.108552 C1591.53229,480.002974 1638,581.495078 1638,581.495078 L1638,1385.49508 C1638,1385.49508 1569.95906,1269.07015 1383.88965,1285.3458 C1197.82024,1301.62145 1131.25207,1339.03626 1131.25207,1339.03626 C1072.01839,1360.91508 1024,1329.40199 1024,1268.64611 L1024,742.448725 C1024,681.694502 1073.15233,605.948996 1133.28821,578.659012 C1133.28821,578.659012 1176.24701,538.21413 1383.88965,509.108552 Z" id="page-1-left-copy-4" fill="#E1D2B8" filter="url(#filter-2)" sketch:type="MSShapeGroup" transform="translate(1331.000000, 944.678727) scale(-1, 1) translate(-1331.000000, -944.678727) "></path>
            <path d="M1124.9225,453.444351 C1124.9225,453.444351 1164.59292,423.65718 1356.34109,446.065957 C1548.08926,468.474734 1591,581.495078 1591,581.495078 L1591,1385.49508 C1591,1385.49508 1528.16741,1252.18977 1356.34109,1222.3032 C1184.51478,1192.41663 1123.04223,1213.31646 1123.04223,1213.31646 C1068.34271,1220.4999 1024,1177.07387 1024,1116.31798 L1024,590.1206 C1024,529.366377 1069.38986,465.815143 1124.9225,453.444351 Z" id="page-1-left-copy-3" fill="#E1D2B8" filter="url(#filter-3)" sketch:type="MSShapeGroup" transform="translate(1307.500000, 911.605254) scale(-1, 1) translate(-1307.500000, -911.605254) "></path>
            <path d="M769.889648,509.108552 C977.532288,480.002974 1024,581.495078 1024,581.495078 L1024,1385.49508 C1024,1385.49508 955.959061,1269.07015 769.889648,1285.3458 C583.820236,1301.62145 517.252074,1339.03626 517.252074,1339.03626 C458.018389,1360.91508 410,1329.40199 410,1268.64611 L410,742.448725 C410,681.694502 459.152332,605.948996 519.288205,578.659012 C519.288205,578.659012 562.247009,538.21413 769.889648,509.108552 Z" id="page-1-left-copy-8" fill="#E1D2B8" filter="url(#filter-4)" sketch:type="MSShapeGroup"></path>
            <path d="M557.922496,453.444351 C557.922496,453.444351 597.592922,423.65718 789.341092,446.065957 C981.089262,468.474734 1024,581.495078 1024,581.495078 L1024,1385.49508 C1024,1385.49508 961.167406,1252.18977 789.341092,1222.3032 C617.514778,1192.41663 556.042225,1213.31646 556.042225,1213.31646 C501.342715,1220.4999 457,1177.07387 457,1116.31798 L457,590.1206 C457,529.366377 502.389857,465.815143 557.922496,453.444351 Z" id="page-1-left-copy-6" fill="#E1D2B8" filter="url(#filter-5)" sketch:type="MSShapeGroup"></path>
            <path d="M1511,578.729032 L1511,1382.72903 C1511,1382.72903 1457.03268,1229.02668 1309.44993,1143.36096 C1161.86719,1057.69523 1109.06801,1058.63951 1109.06801,1058.63951 C1062.08625,1048.06612 1024,990.245323 1024,929.489434 L1024,403.292054 C1024,342.537831 1062.98564,293.721289 1110.68299,299.377793 C1110.68299,299.377793 1144.75618,282.468642 1309.44993,367.123711 C1474.14369,451.77878 1511,578.729032 1511,578.729032 Z" id="page-1-left-copy-10" fill="url(#linearGradient-6)" filter="url(#filter-7)" sketch:type="MSShapeGroup" transform="translate(1267.500000, 840.364516) scale(-1, 1) translate(-1267.500000, -840.364516) "></path>
            <path d="M1024,581.495078 L1024,1385.49508 C1024,1385.49508 970.032675,1231.79273 822.449933,1146.127 C674.867191,1060.46128 622.068013,1061.40556 622.068013,1061.40556 C575.086247,1050.83216 537,993.011369 537,932.25548 L537,406.0581 C537,345.303877 575.985645,296.487335 623.68299,302.143839 C623.68299,302.143839 657.756178,285.234688 822.449933,369.889757 C987.143687,454.544826 1024,581.495078 1024,581.495078 Z" id="page-1-left-copy-9" fill="url(#linearGradient-6)" filter="url(#filter-8)" sketch:type="MSShapeGroup"></path>
            <path d="M1511,578.729032 L1511,1382.72903 C1511,1382.72903 1457.03268,1229.02668 1309.44993,1143.36096 C1161.86719,1057.69523 1109.06801,1058.63951 1109.06801,1058.63951 C1062.08625,1048.06612 1024,990.245323 1024,929.489434 L1024,403.292054 C1024,342.537831 1062.98564,293.721289 1110.68299,299.377793 C1110.68299,299.377793 1144.75618,282.468642 1309.44993,367.123711 C1474.14369,451.77878 1511,578.729032 1511,578.729032 Z" id="page-1-left-copy-11" fill="url(#linearGradient-9)" sketch:type="MSShapeGroup" transform="translate(1267.500000, 840.364516) scale(-1, 1) translate(-1267.500000, -840.364516) "></path>
            <polygon id="Star-1-Copy" fill="#FE6356" filter="url(#filter-10)" sketch:type="MSShapeGroup" points="1024 1011.73103 775.886418 1142.17206 823.271896 865.893525 622.543791 670.231981 899.943209 629.923486 1024 378.556973 1148.05679 629.923486 1425.45621 670.231981 1224.7281 865.893525 1272.11358 1142.17206 "></polygon>
        </g>
    </g>
</svg>