<?xml version="1.0" encoding="UTF-8" standalone="no"?>
<svg width="2840px" height="144px" viewBox="0 0 2840 144" version="1.1" xmlns="http://www.w3.org/2000/svg" xmlns:xlink="http://www.w3.org/1999/xlink" xmlns:sketch="http://www.bohemiancoding.com/sketch/ns">
    <!-- Generator: Sketch 3.3.2 (12043) - http://www.bohemiancoding.com/sketch -->
    <title>brackets</title>
    <desc>Created with Sketch.</desc>
    <defs></defs>
    <g id="Page-1" stroke="none" stroke-width="1" fill="none" fill-rule="evenodd" sketch:type="MSPage">
        <path d="M1279.5,1.0272907e-14 L1226.5,2.84217094e-14 L1185,71.8801085 L1226.5,143.760217 L1279.5,143.760217 L1249.5,143.760217 L1208,71.8801085 L1249.5,2.84217094e-14 L1279.5,1.81488024e-14 Z" id="Polygon-1" fill="#FFFFFF" sketch:type="MSShapeGroup"></path>
        <path d="M3.04251385,71.3801085 L1184.83847,71.3801085" id="Line" stroke="#FFFFFF" stroke-width="5" stroke-linecap="square" sketch:type="MSShapeGroup"></path>
        <path d="M1655,1.0272907e-14 L1602,2.84217094e-14 L1560.5,71.8801085 L1602,143.760217 L1655,143.760217 L1625,143.760217 L1583.5,71.8801085 L1625,2.84217094e-14 L1655,1.81488024e-14 Z" id="Polygon-1-Copy-2" fill="#FFFFFF" sketch:type="MSShapeGroup" transform="translate(1607.750000, 71.880109) scale(-1, 1) translate(-1607.750000, -71.880109) "></path>
        <path d="M1655.04251,71.3801085 L2836.83847,71.3801085" id="Line-Copy" stroke="#FFFFFF" stroke-width="5" stroke-linecap="square" sketch:type="MSShapeGroup" transform="translate(2246.000000, 71.380109) scale(-1, 1) translate(-2246.000000, -71.380109) "></path>
    </g>
</svg>