<?xml version="1.0" encoding="UTF-8" standalone="no"?>
<svg width="1311px" height="1311px" viewBox="0 0 1311 1311" version="1.1" xmlns="http://www.w3.org/2000/svg" xmlns:xlink="http://www.w3.org/1999/xlink" xmlns:sketch="http://www.bohemiancoding.com/sketch/ns">
    <!-- Generator: Sketch 3.3.2 (12043) - http://www.bohemiancoding.com/sketch -->
    <title>Witty</title>
    <desc>Created with Sketch.</desc>
    <defs></defs>
    <g id="Page-1" stroke="none" stroke-width="1" fill="none" fill-rule="evenodd" sketch:type="MSPage">
        <path d="M1015.38965,228.108552 C1223.03229,199.002974 1269.5,300.495078 1269.5,300.495078 L1269.5,1104.49508 C1269.5,1104.49508 1201.45906,988.070147 1015.38965,1004.3458 C829.320236,1020.62145 762.752074,1058.03626 762.752074,1058.03626 C703.518389,1079.91508 655.5,1048.40199 655.5,987.646105 L655.5,461.448725 C655.5,400.694502 704.652332,324.948996 764.788205,297.659012 C764.788205,297.659012 807.747009,257.21413 1015.38965,228.108552 Z" id="page-1-left-copy-4" fill="#C4B69C" sketch:type="MSShapeGroup" transform="translate(962.500000, 663.678727) scale(-1, 1) translate(-962.500000, -663.678727) "></path>
        <path d="M756.422496,172.444351 C756.422496,172.444351 796.092922,142.65718 987.841092,165.065957 C1179.58926,187.474734 1222.5,300.495078 1222.5,300.495078 L1222.5,1104.49508 C1222.5,1104.49508 1159.66741,971.189774 987.841092,941.303202 C816.014778,911.41663 754.542225,932.316457 754.542225,932.316457 C699.842715,939.499901 655.5,896.073869 655.5,835.31798 L655.5,309.1206 C655.5,248.366377 700.889857,184.815143 756.422496,172.444351 Z" id="page-1-left-copy-3" fill="#D9C8AB" sketch:type="MSShapeGroup" transform="translate(939.000000, 630.605254) scale(-1, 1) translate(-939.000000, -630.605254) "></path>
        <path d="M401.389648,228.108552 C609.032288,199.002974 655.5,300.495078 655.5,300.495078 L655.5,1104.49508 C655.5,1104.49508 587.459061,988.070147 401.389648,1004.3458 C215.320236,1020.62145 148.752074,1058.03626 148.752074,1058.03626 C89.5183894,1079.91508 41.5,1048.40199 41.5,987.646105 L41.5,461.448725 C41.5,400.694502 90.6523322,324.948996 150.788205,297.659012 C150.788205,297.659012 193.747009,257.21413 401.389648,228.108552 Z" id="page-1-left-copy-8" fill="#C4B69C" sketch:type="MSShapeGroup"></path>
        <text id="Type-something" sketch:type="MSTextLayer" font-family="Helvetica" font-size="12" font-weight="normal" fill="#000000">
            <tspan x="875" y="100">D9C8AB</tspan>
        </text>
        <path d="M189.422496,172.444351 C189.422496,172.444351 229.092922,142.65718 420.841092,165.065957 C612.589262,187.474734 655.5,300.495078 655.5,300.495078 L655.5,1104.49508 C655.5,1104.49508 592.667406,971.189774 420.841092,941.303202 C249.014778,911.41663 187.542225,932.316457 187.542225,932.316457 C132.842715,939.499901 88.5,896.073869 88.5,835.31798 L88.5,309.1206 C88.5,248.366377 133.889857,184.815143 189.422496,172.444351 Z" id="page-1-left-copy-6" fill="#D9C8AB" sketch:type="MSShapeGroup"></path>
        <text id="Type-something" sketch:type="MSTextLayer" font-family="Helvetica" font-size="12" font-weight="normal" fill="#000000">
            <tspan x="874" y="100">EADABE</tspan>
        </text>
        <path d="M655.5,300.495078 L655.5,1104.49508 C655.5,1104.49508 601.532675,950.792729 453.949933,865.127002 C306.367191,779.461275 253.568013,780.405561 253.568013,780.405561 C206.586247,769.832165 168.5,712.011369 168.5,651.25548 L168.5,125.0581 C168.5,64.3038768 207.485645,15.487335 255.18299,21.1438388 C255.18299,21.1438388 289.256178,4.23468801 453.949933,88.8897571 C618.643687,173.544826 655.5,300.495078 655.5,300.495078 Z" id="page-1-left-copy-9" fill="#EEDFC5" sketch:type="MSShapeGroup"></path>
        <path d="M1142.5,297.729032 L1142.5,1101.72903 C1142.5,1101.72903 1088.53268,948.026683 940.949933,862.360956 C793.367191,776.695229 740.568013,777.639515 740.568013,777.639515 C693.586247,767.066119 655.5,709.245323 655.5,648.489434 L655.5,122.292054 C655.5,61.5378307 694.485645,12.7212889 742.18299,18.3777927 C742.18299,18.3777927 776.256178,1.46864193 940.949933,86.123711 C1105.64369,170.77878 1142.5,297.729032 1142.5,297.729032 Z" id="page-1-left-copy-11" fill="#EEDFC5" sketch:type="MSShapeGroup" transform="translate(899.000000, 559.364516) scale(-1, 1) translate(-899.000000, -559.364516) "></path>
        <polygon id="Star-1-Copy" fill="#FE6356" sketch:type="MSShapeGroup" points="656 709.366514 407.886418 839.807543 455.271896 563.52901 254.543791 367.867465 531.943209 327.558971 656 76.1924567 780.056791 327.558971 1057.45621 367.867465 856.728104 563.52901 904.113582 839.807543 "></polygon>
    </g>
</svg>