<?xml version="1.0" encoding="UTF-8" standalone="no"?>
<svg width="857px" height="788px" viewBox="0 0 857 788" version="1.1" xmlns="http://www.w3.org/2000/svg" xmlns:xlink="http://www.w3.org/1999/xlink" xmlns:sketch="http://www.bohemiancoding.com/sketch/ns">
    <!-- Generator: Sketch 3.3.2 (12043) - http://www.bohemiancoding.com/sketch -->
    <title>refresh</title>
    <desc>Created with Sketch.</desc>
    <defs></defs>
    <g id="Page-1" stroke="none" stroke-width="1" fill="none" fill-rule="evenodd" sketch:type="MSPage">
        <path d="M742.403447,578.155388 C676.293607,702.969449 545.076778,788 394,788 C176.399809,788 0,611.600191 0,394 C0,176.399809 176.399809,0 394,0 C514.03299,0 621.52926,53.6760828 693.795443,138.334883 L580.843067,234.660505 C535.818743,182.219144 469.038745,149 394.5,149 C258.914094,149 149,258.914094 149,394.5 C149,530.085906 258.914094,640 394.5,640 C477.419681,640 550.737783,598.890752 595.185297,535.941263 L481.319515,503.290775 L755.749851,254.836404 L856.819218,610.963582 L742.403447,578.155388 Z" id="Oval-1" fill="#FFFFFF" sketch:type="MSShapeGroup"></path>
    </g>
</svg>