<?xml version="1.0" encoding="UTF-8" standalone="no"?>
<svg width="2048px" height="2048px" viewBox="0 0 2048 2048" version="1.1" xmlns="http://www.w3.org/2000/svg" xmlns:xlink="http://www.w3.org/1999/xlink" xmlns:sketch="http://www.bohemiancoding.com/sketch/ns">
    <!-- Generator: Sketch 3.3.2 (12043) - http://www.bohemiancoding.com/sketch -->
    <title>Desktop</title>
    <desc>Created with Sketch.</desc>
    <defs>
        <filter x="-50%" y="-50%" width="200%" height="200%" filterUnits="objectBoundingBox" id="filter-1">
            <feOffset dx="0" dy="24" in="SourceAlpha" result="shadowOffsetOuter1"></feOffset>
            <feGaussianBlur stdDeviation="20" in="shadowOffsetOuter1" result="shadowBlurOuter1"></feGaussianBlur>
            <feColorMatrix values="0 0 0 0 0   0 0 0 0 0   0 0 0 0 0  0 0 0 0.35 0" in="shadowBlurOuter1" type="matrix" result="shadowMatrixOuter1"></feColorMatrix>
            <feMerge>
                <feMergeNode in="shadowMatrixOuter1"></feMergeNode>
                <feMergeNode in="SourceGraphic"></feMergeNode>
            </feMerge>
        </filter>
        <filter x="-50%" y="-50%" width="200%" height="200%" filterUnits="objectBoundingBox" id="filter-2">
            <feOffset dx="0" dy="24" in="SourceAlpha" result="shadowOffsetOuter1"></feOffset>
            <feGaussianBlur stdDeviation="20" in="shadowOffsetOuter1" result="shadowBlurOuter1"></feGaussianBlur>
            <feColorMatrix values="0 0 0 0 0   0 0 0 0 0   0 0 0 0 0  0 0 0 0.35 0" in="shadowBlurOuter1" type="matrix" result="shadowMatrixOuter1"></feColorMatrix>
            <feMerge>
                <feMergeNode in="shadowMatrixOuter1"></feMergeNode>
                <feMergeNode in="SourceGraphic"></feMergeNode>
            </feMerge>
        </filter>
        <filter x="-50%" y="-50%" width="200%" height="200%" filterUnits="objectBoundingBox" id="filter-3">
            <feOffset dx="0" dy="24" in="SourceAlpha" result="shadowOffsetOuter1"></feOffset>
            <feGaussianBlur stdDeviation="20" in="shadowOffsetOuter1" result="shadowBlurOuter1"></feGaussianBlur>
            <feColorMatrix values="0 0 0 0 0   0 0 0 0 0   0 0 0 0 0  0 0 0 0.35 0" in="shadowBlurOuter1" type="matrix" result="shadowMatrixOuter1"></feColorMatrix>
            <feMerge>
                <feMergeNode in="shadowMatrixOuter1"></feMergeNode>
                <feMergeNode in="SourceGraphic"></feMergeNode>
            </feMerge>
        </filter>
        <filter x="-50%" y="-50%" width="200%" height="200%" filterUnits="objectBoundingBox" id="filter-4">
            <feOffset dx="0" dy="24" in="SourceAlpha" result="shadowOffsetOuter1"></feOffset>
            <feGaussianBlur stdDeviation="20" in="shadowOffsetOuter1" result="shadowBlurOuter1"></feGaussianBlur>
            <feColorMatrix values="0 0 0 0 0   0 0 0 0 0   0 0 0 0 0  0 0 0 0.35 0" in="shadowBlurOuter1" type="matrix" result="shadowMatrixOuter1"></feColorMatrix>
            <feMerge>
                <feMergeNode in="shadowMatrixOuter1"></feMergeNode>
                <feMergeNode in="SourceGraphic"></feMergeNode>
            </feMerge>
        </filter>
        <filter x="-50%" y="-50%" width="200%" height="200%" filterUnits="objectBoundingBox" id="filter-5">
            <feOffset dx="0" dy="24" in="SourceAlpha" result="shadowOffsetOuter1"></feOffset>
            <feGaussianBlur stdDeviation="20" in="shadowOffsetOuter1" result="shadowBlurOuter1"></feGaussianBlur>
            <feColorMatrix values="0 0 0 0 0   0 0 0 0 0   0 0 0 0 0  0 0 0 0.35 0" in="shadowBlurOuter1" type="matrix" result="shadowMatrixOuter1"></feColorMatrix>
            <feMerge>
                <feMergeNode in="shadowMatrixOuter1"></feMergeNode>
                <feMergeNode in="SourceGraphic"></feMergeNode>
            </feMerge>
        </filter>
        <linearGradient x1="0%" y1="100%" x2="100%" y2="100%" id="linearGradient-6">
            <stop stop-color="#EEDFC5" offset="0%"></stop>
            <stop stop-color="#CFBCA0" offset="100%"></stop>
        </linearGradient>
        <filter x="-50%" y="-50%" width="200%" height="200%" filterUnits="objectBoundingBox" id="filter-7">
            <feOffset dx="0" dy="24" in="SourceAlpha" result="shadowOffsetOuter1"></feOffset>
            <feGaussianBlur stdDeviation="20" in="shadowOffsetOuter1" result="shadowBlurOuter1"></feGaussianBlur>
            <feColorMatrix values="0 0 0 0 0   0 0 0 0 0   0 0 0 0 0  0 0 0 0.35 0" in="shadowBlurOuter1" type="matrix" result="shadowMatrixOuter1"></feColorMatrix>
            <feMerge>
                <feMergeNode in="shadowMatrixOuter1"></feMergeNode>
                <feMergeNode in="SourceGraphic"></feMergeNode>
            </feMerge>
        </filter>
        <filter x="-50%" y="-50%" width="200%" height="200%" filterUnits="objectBoundingBox" id="filter-8">
            <feOffset dx="0" dy="24" in="SourceAlpha" result="shadowOffsetOuter1"></feOffset>
            <feGaussianBlur stdDeviation="20" in="shadowOffsetOuter1" result="shadowBlurOuter1"></feGaussianBlur>
            <feColorMatrix values="0 0 0 0 0   0 0 0 0 0   0 0 0 0 0  0 0 0 0.35 0" in="shadowBlurOuter1" type="matrix" result="shadowMatrixOuter1"></feColorMatrix>
            <feMerge>
                <feMergeNode in="shadowMatrixOuter1"></feMergeNode>
                <feMergeNode in="SourceGraphic"></feMergeNode>
            </feMerge>
        </filter>
        <linearGradient x1="100%" y1="102.397406%" x2="0%" y2="102.397406%" id="linearGradient-9">
            <stop stop-color="#EEDFC5" offset="0%"></stop>
            <stop stop-color="#CFBCA0" offset="100%"></stop>
        </linearGradient>
    </defs>
    <g id="Page-1" stroke="none" stroke-width="1" fill="none" fill-rule="evenodd" sketch:type="MSPage">
        <g id="Desktop" sketch:type="MSArtboardGroup">
            <rect id="cover" fill="#62A39D" filter="url(#filter-1)" sketch:type="MSShapeGroup" x="408.5" y="789" width="1230" height="1024" rx="110"></rect>
            <rect id="cover-copy" fill="#5EC8BE" sketch:type="MSShapeGroup" x="408.5" y="718" width="1231" height="1024" rx="110"></rect>
            <path d="M1383.38965,794.108552 C1591.03229,765.002974 1637.5,866.495078 1637.5,866.495078 L1637.5,1670.49508 C1637.5,1670.49508 1569.45906,1554.07015 1383.38965,1570.3458 C1197.32024,1586.62145 1130.75207,1624.03626 1130.75207,1624.03626 C1071.51839,1645.91508 1023.5,1614.40199 1023.5,1553.64611 L1023.5,1027.44873 C1023.5,966.694502 1072.65233,890.948996 1132.78821,863.659012 C1132.78821,863.659012 1175.74701,823.21413 1383.38965,794.108552 Z" id="page-1-left-copy-4" fill="#E1D2B8" filter="url(#filter-2)" sketch:type="MSShapeGroup" transform="translate(1330.500000, 1229.678727) scale(-1, 1) translate(-1330.500000, -1229.678727) "></path>
            <path d="M1124.4225,738.444351 C1124.4225,738.444351 1164.09292,708.65718 1355.84109,731.065957 C1547.58926,753.474734 1590.5,866.495078 1590.5,866.495078 L1590.5,1670.49508 C1590.5,1670.49508 1527.66741,1537.18977 1355.84109,1507.3032 C1184.01478,1477.41663 1122.54223,1498.31646 1122.54223,1498.31646 C1067.84271,1505.4999 1023.5,1462.07387 1023.5,1401.31798 L1023.5,875.1206 C1023.5,814.366377 1068.88986,750.815143 1124.4225,738.444351 Z" id="page-1-left-copy-3" fill="#E1D2B8" filter="url(#filter-3)" sketch:type="MSShapeGroup" transform="translate(1307.000000, 1196.605254) scale(-1, 1) translate(-1307.000000, -1196.605254) "></path>
            <path d="M769.389648,794.108552 C977.032288,765.002974 1023.5,866.495078 1023.5,866.495078 L1023.5,1670.49508 C1023.5,1670.49508 955.459061,1554.07015 769.389648,1570.3458 C583.320236,1586.62145 516.752074,1624.03626 516.752074,1624.03626 C457.518389,1645.91508 409.5,1614.40199 409.5,1553.64611 L409.5,1027.44873 C409.5,966.694502 458.652332,890.948996 518.788205,863.659012 C518.788205,863.659012 561.747009,823.21413 769.389648,794.108552 Z" id="page-1-left-copy-8" fill="#E1D2B8" filter="url(#filter-4)" sketch:type="MSShapeGroup"></path>
            <path d="M557.422496,738.444351 C557.422496,738.444351 597.092922,708.65718 788.841092,731.065957 C980.589262,753.474734 1023.5,866.495078 1023.5,866.495078 L1023.5,1670.49508 C1023.5,1670.49508 960.667406,1537.18977 788.841092,1507.3032 C617.014778,1477.41663 555.542225,1498.31646 555.542225,1498.31646 C500.842715,1505.4999 456.5,1462.07387 456.5,1401.31798 L456.5,875.1206 C456.5,814.366377 501.889857,750.815143 557.422496,738.444351 Z" id="page-1-left-copy-6" fill="#E1D2B8" filter="url(#filter-5)" sketch:type="MSShapeGroup"></path>
            <path d="M1510.5,863.729032 L1510.5,1667.72903 C1510.5,1667.72903 1456.53268,1514.02668 1308.94993,1428.36096 C1161.36719,1342.69523 1108.56801,1343.63951 1108.56801,1343.63951 C1061.58625,1333.06612 1023.5,1275.24532 1023.5,1214.48943 L1023.5,688.292054 C1023.5,627.537831 1062.48564,578.721289 1110.18299,584.377793 C1110.18299,584.377793 1144.25618,567.468642 1308.94993,652.123711 C1473.64369,736.77878 1510.5,863.729032 1510.5,863.729032 Z" id="page-1-left-copy-10" fill="url(#linearGradient-6)" filter="url(#filter-7)" sketch:type="MSShapeGroup" transform="translate(1267.000000, 1125.364516) scale(-1, 1) translate(-1267.000000, -1125.364516) "></path>
            <path d="M1023.5,866.495078 L1023.5,1670.49508 C1023.5,1670.49508 969.532675,1516.79273 821.949933,1431.127 C674.367191,1345.46128 621.568013,1346.40556 621.568013,1346.40556 C574.586247,1335.83216 536.5,1278.01137 536.5,1217.25548 L536.5,691.0581 C536.5,630.303877 575.485645,581.487335 623.18299,587.143839 C623.18299,587.143839 657.256178,570.234688 821.949933,654.889757 C986.643687,739.544826 1023.5,866.495078 1023.5,866.495078 Z" id="page-1-left-copy-9" fill="url(#linearGradient-6)" filter="url(#filter-8)" sketch:type="MSShapeGroup"></path>
            <path d="M1510.5,863.729032 L1510.5,1667.72903 C1510.5,1667.72903 1456.53268,1514.02668 1308.94993,1428.36096 C1161.36719,1342.69523 1108.56801,1343.63951 1108.56801,1343.63951 C1061.58625,1333.06612 1023.5,1275.24532 1023.5,1214.48943 L1023.5,688.292054 C1023.5,627.537831 1062.48564,578.721289 1110.18299,584.377793 C1110.18299,584.377793 1144.25618,567.468642 1308.94993,652.123711 C1473.64369,736.77878 1510.5,863.729032 1510.5,863.729032 Z" id="page-1-left-copy-11" fill="url(#linearGradient-9)" sketch:type="MSShapeGroup" transform="translate(1267.000000, 1125.364516) scale(-1, 1) translate(-1267.000000, -1125.364516) "></path>
        </g>
    </g>
</svg>